<svg id="Layer_1" data-name="Layer 1" xmlns="http://www.w3.org/2000/svg" viewBox="0 0 280.49 100.54"><defs><style>.cls-1{fill:#fff;}.cls-2{fill:#bec8e6;}</style></defs><path class="cls-1" d="M31.52,22.64l-2,3.66v9.89H45.75V50.55H29.49v53.94H13.23V50.55H2.52V36.19H13.23v-13l7.18-11.92,13-5.69H46.16V19.93H35.45Z" transform="translate(-2.52 -5.57)"/><path class="cls-2" d="M66.75,41.48,88.3,34.56l16.53,5.56L110,46.35V36.19h16.26v68.3H110v-10l-5.15,6.1L88.3,106.11,66.75,99.2,53.88,81.45V59.23Zm3.39,35.23L78,87l11.92,4.07L102,87l8-10.29V64l-8-10.3L89.92,49.61,78,53.67,70.14,64Z" transform="translate(-2.52 -5.57)"/><path class="cls-1" d="M145.21,104.49V5.57h16.26V69.12l26.15-32.93h18.84L179.22,69.93l28.59,34.56H188L161.47,71.56v32.93Z" transform="translate(-2.52 -5.57)"/><path class="cls-1" d="M228.27,41.48l21.41-6.92,21.14,6.92,12.2,19V75.76H230.71V79l7,9.49L249.55,93l10.7-3.8,4.88-4.88h17.75l-13,15.59-19.65,6.23L228.27,99.2,214.45,81.58V59.09Zm2.44,22.22h36V60.85L261.06,52,249,48,237.76,52l-7,8.81Z" transform="translate(-2.52 -5.57)"/></svg>