<svg id="Layer_1" data-name="Layer 1" xmlns="http://www.w3.org/2000/svg" viewBox="0 0 792 487.24"><defs><style>.cls-1{fill:#fff;}.cls-2{fill:#bec8e6;}.cls-3{fill:#97d4c6;}</style></defs><path class="cls-1" d="M57.05,33.62l-4,7.2V60.28H85V88.54H53V194.62H21V88.51H0V60.25H21.06V34.62L35.19,11.2,60.78,0H85.84V28.26H64.78Z"/><path class="cls-2" d="M126.36,70.62,168.75,57,201.27,68,211.4,80.22v-20h32v134.4h-32V174.88l-10.13,12-32.52,10.93-42.39-13.59L101,149.29V105.62ZM133,140l15.47,20.26,23.45,8,23.73-8L211.38,140V114.9L195.67,94.62l-23.73-8-23.45,8L133,114.9Z"/><path class="cls-1" d="M280.71,194.62V0h32V125l51.45-64.78h37l-53.58,66.4,56.25,68H365l-52.3-64.79v64.79Z"/><path class="cls-1" d="M444.12,70.62,486.24,57l41.59,13.59,24,37.33v30.12H448.92v6.4l13.86,18.66,23.19,8.8,21-7.45,9.6-9.6h34.92L526,185.54,487.3,197.8l-43.18-13.59-27.19-34.66V105.3Zm4.8,43.72h70.91v-5.59l-11.2-17.33-23.72-8-22.13,8-13.86,17.33Z"/><path class="cls-1" d="M129.82,421.39,87.44,435,54.92,424.06l-10.13-12v75.18h-32V297.43H43.72v20l11.2-12.27,32.52-10.92,42.38,13.59,25.33,34.92v43.72ZM107.7,331.82l-23.46-8-23.73,8L44.79,352.08v25.06L60.51,397.4l23.73,8,23.46-8,15.46-20.26V352.08Z"/><path class="cls-1" d="M188.2,237.19h32v194.6h-32Z"/><path class="cls-3" d="M278.57,307.83,321,294.24l32.52,10.92,10.13,12.27v-20h32V431.79h-32V412.06l-10.13,12L321,435l-42.39-13.6-25.32-34.92V342.75Zm6.67,69.31L300.7,397.4l23.46,8,23.72-8,15.73-20.26V352.08l-15.73-20.26-23.72-8-23.46,8-15.46,20.26Z"/><path class="cls-1" d="M432.92,297.43h30.92v19.19l9.87-11.73,26.65-10.66,37.33,12.52L558.21,339v92.77h-32v-82.9l-10.65-17.06-19.46-7.46-21.33,9.33-9.86,16.79v81.31h-32Z"/><path class="cls-1" d="M579.54,297.43h22.92v-40h32v40h34.39v28.26h-34.4V390.2l4.27,9.07,8.8,4.8h20.79v27.72H640.58l-23.72-10.66-14.4-21.86V325.69H579.54Z"/><path class="cls-1" d="M777.34,358.75,792,381.67v20.8l-18.13,21.86L739.22,435l-32-10.66-21.85-31.71h34.39l5.86,10.4,13.6,6.13,15.46-5.33,5.6-8.26v-8l-7.73-8.27-48.26-13.86L692,343.29v-17.6l16.8-21.33,29.85-10.12,31.46,11.19,17.33,27.73H754.68l-3.47-6.94-11.73-5.33-11.73,4.27-4,6.4v6.13l4.79,6.13Z"/></svg>