<svg id="Layer_1" data-name="Layer 1" xmlns="http://www.w3.org/2000/svg" viewBox="0 0 788.82 127.51"><defs><style>.cls-1{fill:#fff;}.cls-2{fill:#bec8e6;}.cls-3{fill:#97d4c6;}</style></defs><path class="cls-1" d="M31.52,22.64l-2,3.66v9.89H45.75V50.55H29.49v53.94H13.23V50.55H2.52V36.19H13.23v-13l7.18-11.92,13-5.69H46.16V19.93H35.45Z" transform="translate(-2.52 -5.57)"/><path class="cls-2" d="M66.75,41.48,88.3,34.56l16.53,5.56L110,46.35V36.19h16.26v68.3H110v-10l-5.15,6.1L88.3,106.11,66.75,99.2,53.88,81.45V59.23Zm3.39,35.23L78,87l11.92,4.07L102,87l8-10.29V64l-8-10.3L89.92,49.61,78,53.67,70.14,64Z" transform="translate(-2.52 -5.57)"/><path class="cls-1" d="M145.21,104.49V5.57h16.26V69.12l26.15-32.93h18.84L179.22,69.93l28.59,34.56H188L161.47,71.56v32.93Z" transform="translate(-2.52 -5.57)"/><path class="cls-1" d="M228.27,41.48l21.41-6.92,21.14,6.92,12.2,19V75.76H230.71V79l7,9.49L249.55,93l10.7-3.8,4.88-4.88h17.75l-13,15.59-19.65,6.23L228.27,99.2,214.45,81.58V59.09Zm2.44,22.22h36V60.85L261.06,52,249,48,237.76,52l-7,8.81Z" transform="translate(-2.52 -5.57)"/><path class="cls-1" d="M454.75,99.61l-21.54,6.91L416.68,101l-5.15-6.1v38.22H395.27V36.6H411V46.76l5.69-6.23L433.21,35l21.54,6.91,12.88,17.75V81.86ZM443.51,54.08,431.58,50l-12.06,4.07-8,10.3V77.11l8,10.3,12.06,4.07,11.93-4.07,7.86-10.3V64.38Z" transform="translate(-2.52 -5.57)"/><path class="cls-1" d="M484.43,6h16.26v98.92H484.43Z" transform="translate(-2.52 -5.57)"/><path class="cls-3" d="M530.36,41.88,551.91,35l16.53,5.56,5.15,6.23V36.6h16.26v68.29H573.59v-10l-5.15,6.1-16.53,5.56-21.55-6.91L517.49,81.86V59.63Zm3.39,35.23,7.86,10.3,11.92,4.07,12.06-4.07,8-10.3V64.38l-8-10.3L553.53,50l-11.92,4.07-7.86,10.3Z" transform="translate(-2.52 -5.57)"/><path class="cls-1" d="M608.82,36.6h15.72v9.75l5-6L643.1,35l19,6.37,10.44,16.4v47.15H656.25V62.75l-5.42-8.67-9.9-3.8L630.09,55l-5,8.53v41.33H608.82Z" transform="translate(-2.52 -5.57)"/><path class="cls-1" d="M683.35,36.6H695V16.27h16.26V36.6h17.48V51H711.26V83.75l2.17,4.61,4.47,2.44h10.57v14.09H714.38l-12.06-5.42L695,88.36V51H683.35Z" transform="translate(-2.52 -5.57)"/><path class="cls-1" d="M783.89,67.76l7.45,11.66V90l-9.21,11.11-17.62,5.42-16.26-5.42L737.14,85h17.48l3,5.29,6.91,3.11,7.86-2.71,2.85-4.2V82.4l-3.93-4.2-24.53-7L740.53,59.9V51l8.53-10.84L764.24,35l16,5.69L789,54.75H772.37l-1.76-3.52-6-2.71-6,2.17-2,3.25v3.12l2.44,3.12Z" transform="translate(-2.52 -5.57)"/></svg>